<svg width="24" height="24" viewBox="0 0 24 24" fill="none" xmlns="http://www.w3.org/2000/svg">
<path d="M12 2C11.2 2 10.5 2.7 10.5 3.5V4.19531C7.90808 4.85916 6 7.19554 6 10V14.8379L5.2793 17H4V19H10.2715C10.0961 19.3038 10.0037 19.6483 10.0035 19.9991C10.0034 20.3499 10.0955 20.6945 10.2706 20.9985C10.4457 21.3024 10.6977 21.5549 11.0012 21.7307C11.3048 21.9065 11.6492 21.9994 12 22C12.3511 22.0001 12.696 21.9077 13.0001 21.7322C13.3042 21.5567 13.5567 21.3042 13.7323 21.0002C13.9079 20.6961 14.0004 20.3512 14.0004 20.0001C14.0004 19.649 13.908 19.3041 13.7324 19H20V17H18.7207L18 14.8379V10C18 7.19554 16.0919 4.85916 13.5 4.19531V3.5C13.5 2.7 12.8 2 12 2ZM12 6C14.2762 6 16 7.72381 16 10V15.1621L16.6113 17H7.38867L8 15.1621V10C8 7.72381 9.72381 6 12 6Z" fill="#2A3035"/>
</svg>
