<svg width="24" height="24" viewBox="0 0 24 24" fill="none" xmlns="http://www.w3.org/2000/svg">
<path d="M4 4C2.9 4 2 4.9 2 6V10C3.1 10 4 10.9 4 12C4 13.1 3.1 14 2 14V18C2 19.1 2.9 20 4 20H20C21.1 20 22 19.1 22 18V14C20.9 14 20 13.1 20 12C20 10.9 20.9 10 22 10V6C22 4.9 21.1 4 20 4H4ZM4 6H20V8.53711C18.805 9.23011 18 10.523 18 12C18 13.477 18.805 14.7709 20 15.4629V18H4V15.4629C5.195 14.7709 6 13.478 6 12C6 10.522 5.195 9.22911 4 8.53711V6ZM11 8V11H8V13H11V16H13V13H16V11H13V8H11Z" fill="#2A3035"/>
</svg>
