<svg width="24" height="24" viewBox="0 0 24 24" fill="none" xmlns="http://www.w3.org/2000/svg">
<path d="M10.08 1.92C5.31948 1.92 1.44 5.79947 1.44 10.56C1.44 15.3205 5.31948 19.2 10.08 19.2C11.8184 19.2 13.4363 18.6787 14.7937 17.79L20.8219 23.8181L22.8581 21.7819L16.9078 15.8316C18.0391 14.3704 18.72 12.5447 18.72 10.56C18.72 5.79947 14.8405 1.92 10.08 1.92ZM10.08 3.84C13.803 3.84 16.8 6.837 16.8 10.56C16.8 14.283 13.803 17.28 10.08 17.28C6.357 17.28 3.36 14.283 3.36 10.56C3.36 6.837 6.357 3.84 10.08 3.84Z" fill="#2A3035"/>
</svg>
