<svg width="24" height="24" viewBox="0 0 24 24" fill="none" xmlns="http://www.w3.org/2000/svg">
<path d="M4 3C2.896 3 2 3.895 2 5V8C3.104 8 4 8.895 4 10C4 11.105 3.104 12 2 12V15C2 16.105 2.896 17 4 17H20C21.104 17 22 16.105 22 15V12C20.896 12 20 11.105 20 10C20 8.895 20.896 8 22 8V5C22 3.895 21.104 3 20 3H4ZM4 5H20V6.53711C18.805 7.22911 18 8.522 18 10C18 11.478 18.805 12.7709 20 13.4629V15H4V13.4629C5.195 12.7709 6 11.478 6 10C6 8.522 5.195 7.22911 4 6.53711V5ZM4.90039 19L17.3398 21.9297C17.5498 21.9797 17.7509 22 17.9609 22C19.1709 22 20.2703 21.1902 20.5703 19.9902L20.8203 19H18.7598L18.6309 19.5C18.5409 19.85 18.1708 20.0705 17.8008 19.9805L13.6191 19H4.90039Z" fill="#2A3035"/>
</svg>
